<svg id="Capa_1" data-name="Capa 1" xmlns="http://www.w3.org/2000/svg" viewBox="0 0 283.79 283.83"><path d="M1102.15,416.28V664.63a17.74,17.74,0,1,1-35.47,0V451.75A17.73,17.73,0,0,0,1048.94,434H978.11l-.23,92.21a14.27,14.27,0,0,1-14.26,14.23h-7a14.25,14.25,0,0,1-14.26-14.29l.24-92.15H871.58a17.73,17.73,0,0,0-17.74,17.73V664.59a17.73,17.73,0,0,1-17.74,17.73h0a17.73,17.73,0,0,1-17.73-17.73V416.28a17.73,17.73,0,0,1,17.73-17.74h248.31A17.74,17.74,0,0,1,1102.15,416.28ZM1030,609.92H994.46a8.87,8.87,0,0,0-8.87,8.86v0a8.86,8.86,0,0,0,8.87,8.86h0a8.87,8.87,0,0,1,8.87,8.87v13.32a8.86,8.86,0,0,0,8.86,8.87h0a8.87,8.87,0,0,0,8.87-8.87V636.53a8.86,8.86,0,0,1,8.86-8.87h0a8.86,8.86,0,0,0,8.86-8.86v0A8.86,8.86,0,0,0,1030,609.92Zm-117.9-92.67h0a8.87,8.87,0,0,0-8.86,8.87v17.74a8.87,8.87,0,0,0,8.86,8.87h0a8.87,8.87,0,0,0,8.87-8.87V526.12A8.87,8.87,0,0,0,912.05,517.25Zm41.36,127.16h0a8.87,8.87,0,0,0,8.86-8.87h0a8.87,8.87,0,0,1,8.87-8.86h0a8.87,8.87,0,0,0,8.87-8.87h0a8.86,8.86,0,0,1,8.86-8.87h0a8.86,8.86,0,0,0,8.87-8.86h0a8.86,8.86,0,0,1,8.86-8.87h0a8.86,8.86,0,0,0,8.86-8.86h0a8.87,8.87,0,0,1,8.87-8.87h0a8.86,8.86,0,0,0,8.86-8.86v0a8.86,8.86,0,0,0-8.86-8.86H900.2a8.86,8.86,0,0,0-8.86,8.86v0a8.85,8.85,0,0,0,8.86,8.86h70.95a8.87,8.87,0,0,1,8.87,8.87h0a8.86,8.86,0,0,1-8.87,8.86h0a8.87,8.87,0,0,0-8.87,8.87h0a8.86,8.86,0,0,1-8.86,8.86h0a8.87,8.87,0,0,0-8.87,8.87h0a8.87,8.87,0,0,1-8.86,8.87h0a8.86,8.86,0,0,0-8.86,8.86h0a8.87,8.87,0,0,1-8.87,8.87h-3.61a23,23,0,0,0-23,23V671a8.85,8.85,0,0,0,8.86,8.86h124.16a8.86,8.86,0,0,0,8.86-8.86h0a8.87,8.87,0,0,0-8.86-8.87H953.41a8.86,8.86,0,0,1-8.87-8.86v0A8.87,8.87,0,0,1,953.41,644.41ZM912.05,495.13a8.87,8.87,0,1,0,8.87,8.87A8.87,8.87,0,0,0,912.05,495.13Z" transform="translate(-818.37 -398.54)"/></svg>