<svg id="Capa_1" data-name="Capa 1" xmlns="http://www.w3.org/2000/svg" viewBox="0 0 189.19 189.22"><defs><style>.cls-1{fill:#9e9d9d;}</style></defs><path class="cls-1" d="M1054.85,457.67V623.24a11.83,11.83,0,1,1-23.65,0V481.32a11.82,11.82,0,0,0-11.82-11.82H972.16L972,531a9.51,9.51,0,0,1-9.5,9.49h-4.64a9.51,9.51,0,0,1-9.51-9.53l.16-61.43H901.14a11.83,11.83,0,0,0-11.83,11.82V623.21A11.82,11.82,0,0,1,877.49,635h0a11.83,11.83,0,0,1-11.83-11.82V457.67a11.83,11.83,0,0,1,11.83-11.82H1043A11.82,11.82,0,0,1,1054.85,457.67Zm-48.13,129.1H983.06a5.9,5.9,0,0,0-5.91,5.91h0a5.91,5.91,0,0,0,5.91,5.91h0a5.91,5.91,0,0,1,5.91,5.91v8.88a5.91,5.91,0,0,0,5.91,5.91h0a5.92,5.92,0,0,0,5.91-5.91v-8.88a5.9,5.9,0,0,1,5.91-5.91h0a5.92,5.92,0,0,0,5.91-5.91h0A5.91,5.91,0,0,0,1006.72,586.77ZM928.12,525h0a5.91,5.91,0,0,0-5.91,5.91v11.83a5.92,5.92,0,0,0,5.91,5.91h0a5.91,5.91,0,0,0,5.91-5.91V530.9A5.9,5.9,0,0,0,928.12,525Zm27.57,84.77h0a5.92,5.92,0,0,0,5.91-5.91h0a5.91,5.91,0,0,1,5.91-5.91h0a5.92,5.92,0,0,0,5.91-5.91h0a5.91,5.91,0,0,1,5.91-5.91h0a5.92,5.92,0,0,0,5.91-5.91h0a5.91,5.91,0,0,1,5.91-5.91h0a5.92,5.92,0,0,0,5.91-5.91h0a5.91,5.91,0,0,1,5.91-5.91h0a5.92,5.92,0,0,0,5.91-5.91h0a5.91,5.91,0,0,0-5.91-5.91H920.22a5.91,5.91,0,0,0-5.91,5.91h0a5.92,5.92,0,0,0,5.91,5.91h47.3a5.91,5.91,0,0,1,5.91,5.91h0a5.92,5.92,0,0,1-5.91,5.91h0a5.91,5.91,0,0,0-5.91,5.91h0a5.92,5.92,0,0,1-5.91,5.91h0a5.91,5.91,0,0,0-5.91,5.91h0a5.92,5.92,0,0,1-5.91,5.91h0a5.91,5.91,0,0,0-5.91,5.91h0a5.92,5.92,0,0,1-5.91,5.91h-2.41a15.32,15.32,0,0,0-15.32,15.32v2.42a5.92,5.92,0,0,0,5.91,5.91H1003a5.92,5.92,0,0,0,5.91-5.91h0a5.91,5.91,0,0,0-5.91-5.91h-47.3a5.92,5.92,0,0,1-5.91-5.91h0A5.91,5.91,0,0,1,955.69,609.76Zm-27.57-99.52a5.91,5.91,0,1,0,5.91,5.91A5.92,5.92,0,0,0,928.12,510.24Z" transform="translate(-865.66 -445.85)"/></svg>